<svg xmlns="http://www.w3.org/2000/svg" width="600" height="400" viewBox="0 0 600 400">
  <rect width="600" height="400" fill="#ffffff"/>
  <text x="300" y="40" font-family="Arial, sans-serif" font-size="20" font-weight="bold" fill="#333333" text-anchor="middle">Hermes Messaging Channels</text>
  <rect x="50" y="80" width="120" height="60" fill="#0088cc" rx="8"/>
  <text x="110" y="115" font-family="Arial, sans-serif" font-size="14" font-weight="bold" fill="#ffffff" text-anchor="middle">Telegram</text>
  <rect x="180" y="80" width="120" height="60" fill="#5865F2" rx="8"/>
  <text x="240" y="115" font-family="Arial, sans-serif" font-size="14" font-weight="bold" fill="#ffffff" text-anchor="middle">Discord</text>
  <rect x="310" y="80" width="120" height="60" fill="#4A154B" rx="8"/>
  <text x="370" y="115" font-family="Arial, sans-serif" font-size="14" font-weight="bold" fill="#ffffff" text-anchor="middle">Slack</text>
  <rect x="440" y="80" width="120" height="60" fill="#25D366" rx="8"/>
  <text x="500" y="115" font-family="Arial, sans-serif" font-size="14" font-weight="bold" fill="#ffffff" text-anchor="middle">WhatsApp</text>
  <rect x="50" y="160" width="120" height="60" fill="#00BFA5" rx="8"/>
  <text x="110" y="195" font-family="Arial, sans-serif" font-size="14" font-weight="bold" fill="#ffffff" text-anchor="middle">Signal</text>
  <rect x="180" y="160" width="120" height="60" fill="#FF6B6B" rx="8"/>
  <text x="240" y="195" font-family="Arial, sans-serif" font-size="14" font-weight="bold" fill="#ffffff" text-anchor="middle">飞书</text>
  <rect x="310" y="160" width="120" height="60" fill="#07C160" rx="8"/>
  <text x="370" y="195" font-family="Arial, sans-serif" font-size="14" font-weight="bold" fill="#ffffff" text-anchor="middle">微信</text>
  <rect x="440" y="160" width="120" height="60" fill="#1890FF" rx="8"/>
  <text x="500" y="195" font-family="Arial, sans-serif" font-size="14" font-weight="bold" fill="#ffffff" text-anchor="middle">Matrix</text>
  <text x="300" y="280" font-family="Arial, sans-serif" font-size="16" fill="#666666" text-anchor="middle">Unified Configuration</text>
  <text x="300" y="310" font-family="Arial, sans-serif" font-size="14" fill="#888888" text-anchor="middle">All channels configured in one place</text>
  <text x="300" y="340" font-family="Arial, sans-serif" font-size="14" fill="#888888" text-anchor="middle">Web UI or Terminal - your choice!</text>
</svg>